<svg width="914" height="400" fill="none" xmlns="http://www.w3.org/2000/svg"><path fill="#fff" d="M0 0h914v400H0z"/><path d="M404.955 209h-4.307v-7.984c0-2.033-.747-3.049-2.242-3.049-.711 0-1.29.305-1.736.916-.447.61-.67 1.372-.67 2.283V209h-4.32v-8.066c0-1.978-.734-2.967-2.202-2.967-.738 0-1.33.291-1.777.875-.437.583-.656 1.376-.656 2.379V209h-4.32v-14h4.32v2.188h.055c.446-.748 1.071-1.354 1.873-1.819a5.163 5.163 0 0 1 2.652-.711c1.978 0 3.331.871 4.06 2.612 1.067-1.741 2.635-2.612 4.704-2.612 3.044 0 4.566 1.878 4.566 5.633V209ZM410 192.785c-.729 0-1.326-.214-1.791-.642a2.118 2.118 0 0 1-.697-1.6c0-.647.233-1.176.697-1.586.465-.41 1.062-.615 1.791-.615.739 0 1.336.205 1.792.615.464.41.697.939.697 1.586 0 .656-.233 1.194-.697 1.613-.456.42-1.053.629-1.792.629ZM412.133 209h-4.32v-14h4.32v14Zm16.599 0h-4.307v-7.779c0-2.17-.775-3.254-2.324-3.254-.748 0-1.363.287-1.846.861-.483.574-.725 1.304-.725 2.188V209h-4.32v-14h4.32v2.215h.055c1.03-1.705 2.529-2.557 4.498-2.557 3.099 0 4.649 1.923 4.649 5.77V209Zm5.059-16.215c-.73 0-1.327-.214-1.791-.642a2.115 2.115 0 0 1-.698-1.6c0-.647.233-1.176.698-1.586.464-.41 1.061-.615 1.791-.615.738 0 1.335.205 1.791.615.465.41.697.939.697 1.586 0 .656-.232 1.194-.697 1.613-.456.42-1.053.629-1.791.629ZM435.923 209h-4.32v-14h4.32v14Zm2.161-.369v-3.5a9.27 9.27 0 0 0 2.119.957c.711.21 1.381.314 2.01.314.766 0 1.367-.104 1.805-.314.446-.21.67-.529.67-.957a.888.888 0 0 0-.301-.684 2.767 2.767 0 0 0-.779-.478 8.254 8.254 0 0 0-1.026-.369c-.373-.11-.734-.233-1.08-.37a11.162 11.162 0 0 1-1.476-.669 4.574 4.574 0 0 1-1.067-.848 3.468 3.468 0 0 1-.656-1.108c-.146-.419-.219-.916-.219-1.49 0-.784.169-1.458.506-2.023a4.206 4.206 0 0 1 1.367-1.381 6.11 6.11 0 0 1 1.955-.793 10.04 10.04 0 0 1 2.297-.26c.62 0 1.249.05 1.887.151a13.28 13.28 0 0 1 1.887.41v3.336a6.631 6.631 0 0 0-1.764-.711 7.146 7.146 0 0 0-1.832-.246 3.82 3.82 0 0 0-.807.082 2.3 2.3 0 0 0-.656.218 1.144 1.144 0 0 0-.451.37.813.813 0 0 0-.164.505c0 .256.082.474.246.657.164.182.378.341.642.478.265.128.556.246.875.356.329.1.652.205.971.314.574.201 1.094.419 1.559.656.465.237.861.515 1.189.834.337.319.593.693.766 1.121.182.429.273.939.273 1.532 0 .829-.182 1.54-.547 2.133a4.327 4.327 0 0 1-1.435 1.435c-.593.365-1.281.629-2.065.793-.774.173-1.581.26-2.42.26-1.54 0-2.966-.237-4.279-.711Zm21.151.205c-.638.337-1.6.506-2.885.506-3.044 0-4.566-1.582-4.566-4.744v-6.412h-2.27V195h2.27v-3.021l4.307-1.231V195h3.144v3.186h-3.144v5.66c0 1.458.578 2.187 1.736 2.187.456 0 .925-.132 1.408-.396v3.199Zm13.536.164h-4.088v-2.01h-.055c-.939 1.568-2.329 2.352-4.17 2.352-1.358 0-2.429-.383-3.213-1.149-.774-.774-1.162-1.804-1.162-3.089 0-2.717 1.609-4.284 4.826-4.704l3.801-.505c0-1.532-.829-2.297-2.488-2.297-1.668 0-3.254.496-4.758 1.49v-3.254c.602-.31 1.422-.583 2.461-.82 1.048-.237 2.001-.356 2.858-.356 3.992 0 5.988 1.992 5.988 5.975V209Zm-4.061-5.688v-.943l-2.543.328c-1.403.183-2.105.816-2.105 1.901 0 .492.168.897.506 1.216.346.31.811.465 1.394.465.811 0 1.472-.278 1.983-.834.51-.565.765-1.276.765-2.133Zm15.382 5.524c-.638.337-1.6.506-2.885.506-3.044 0-4.566-1.582-4.566-4.744v-6.412h-2.27V195h2.27v-3.021l4.306-1.231V195h3.145v3.186h-3.145v5.66c0 1.458.579 2.187 1.736 2.187.456 0 .926-.132 1.409-.396v3.199Zm.971-.205v-3.5a9.27 9.27 0 0 0 2.119.957c.711.21 1.381.314 2.01.314.765 0 1.367-.104 1.804-.314.447-.21.67-.529.67-.957 0-.274-.1-.501-.3-.684a2.774 2.774 0 0 0-.78-.478 8.237 8.237 0 0 0-1.025-.369c-.374-.11-.734-.233-1.08-.37a11.238 11.238 0 0 1-1.477-.669 4.589 4.589 0 0 1-1.066-.848 3.45 3.45 0 0 1-.656-1.108c-.146-.419-.219-.916-.219-1.49 0-.784.169-1.458.506-2.023a4.206 4.206 0 0 1 1.367-1.381 6.11 6.11 0 0 1 1.955-.793c.738-.173 1.504-.26 2.297-.26.62 0 1.249.05 1.887.151.638.091 1.267.227 1.886.41v3.336a6.625 6.625 0 0 0-1.763-.711 7.146 7.146 0 0 0-1.832-.246 3.82 3.82 0 0 0-.807.082 2.3 2.3 0 0 0-.656.218 1.137 1.137 0 0 0-.451.37.813.813 0 0 0-.164.505c0 .256.082.474.246.657.164.182.378.341.642.478.265.128.556.246.875.356.328.1.652.205.971.314.574.201 1.094.419 1.558.656a4.85 4.85 0 0 1 1.19.834c.337.319.592.693.766 1.121.182.429.273.939.273 1.532 0 .829-.182 1.54-.547 2.133a4.327 4.327 0 0 1-1.435 1.435c-.593.365-1.281.629-2.065.793-.775.173-1.581.26-2.42.26-1.54 0-2.967-.237-4.279-.711Z" fill="#333"/><path d="M498.995 209.273c-.364 0-.674-.127-.93-.382a1.267 1.267 0 0 1-.382-.93c0-.374.123-.688.369-.943.255-.256.569-.383.943-.383.182 0 .351.036.506.109.164.064.305.155.424.274a1.297 1.297 0 0 1 .396.943c0 .182-.036.355-.109.519a1.467 1.467 0 0 1-.287.411c-.119.118-.26.209-.424.273a1.173 1.173 0 0 1-.506.109Zm16.352-1.353c0 2.598-.592 4.521-1.777 5.769-1.176 1.258-2.994 1.887-5.455 1.887a9.602 9.602 0 0 1-4.348-1.025v-1.778c1.522.848 2.971 1.272 4.348 1.272 3.655 0 5.482-1.932 5.482-5.797v-1.682h-.054c-1.076 1.842-2.717 2.762-4.922 2.762-.866 0-1.659-.159-2.379-.478a5.133 5.133 0 0 1-1.832-1.381c-.511-.602-.907-1.331-1.19-2.188-.282-.866-.424-1.841-.424-2.926 0-1.148.151-2.192.452-3.13.3-.948.729-1.76 1.285-2.434a5.69 5.69 0 0 1 2.01-1.559c.792-.373 1.681-.56 2.666-.56 1.977 0 3.422.802 4.334 2.406h.054V195h1.75v12.92Zm-1.75-7.424c0-.583-.105-1.135-.314-1.654a4.295 4.295 0 0 0-.875-1.367 4.12 4.12 0 0 0-1.34-.93 3.98 3.98 0 0 0-1.695-.356c-.73 0-1.39.142-1.983.424a4.375 4.375 0 0 0-1.504 1.203c-.41.52-.729 1.153-.957 1.901-.219.738-.328 1.572-.328 2.502 0 .857.105 1.631.315 2.324.209.693.505 1.281.888 1.764a4 4 0 0 0 1.381 1.121 4.128 4.128 0 0 0 1.818.396c.693 0 1.322-.123 1.887-.369a4.383 4.383 0 0 0 1.449-1.039c.401-.447.711-.966.93-1.559a5.626 5.626 0 0 0 .328-1.941v-2.42Zm11.43 8.832c-1.039 0-1.973-.173-2.802-.519a6.044 6.044 0 0 1-2.106-1.463 6.55 6.55 0 0 1-1.34-2.284c-.309-.884-.464-1.863-.464-2.939 0-1.167.164-2.21.492-3.131.328-.92.793-1.7 1.394-2.338a6.016 6.016 0 0 1 2.201-1.476c.857-.338 1.814-.506 2.872-.506 1.011 0 1.923.168 2.734.506a5.507 5.507 0 0 1 2.064 1.435c.565.629.998 1.395 1.299 2.297.301.902.451 1.928.451 3.076 0 1.094-.159 2.092-.478 2.994a6.671 6.671 0 0 1-1.34 2.311 5.964 5.964 0 0 1-2.133 1.504c-.838.355-1.786.533-2.844.533Zm.137-13.139c-.765 0-1.458.133-2.078.397a4.39 4.39 0 0 0-1.6 1.162c-.437.501-.774 1.121-1.011 1.859-.237.73-.356 1.559-.356 2.489 0 .875.119 1.663.356 2.365a5.4 5.4 0 0 0 .998 1.805c.437.501.966.888 1.586 1.162.62.264 1.312.396 2.078.396.784 0 1.476-.127 2.078-.383a4.196 4.196 0 0 0 1.531-1.134c.419-.502.734-1.112.944-1.832.218-.72.328-1.541.328-2.461 0-1.887-.42-3.327-1.258-4.321-.839-1.002-2.037-1.504-3.596-1.504Z" fill="#555"/></svg>