<svg width="914" height="400" fill="none" xmlns="http://www.w3.org/2000/svg"><style>#CL0 {fill: #333;}@media (prefers-color-scheme: dark) {#CL0 {fill: #CCC;}}</style><path d="M437.135 212h-4.361v-11.73c0-1.267.055-2.666.164-4.198h-.109c-.228 1.203-.433 2.069-.616 2.598L427.62 212h-3.61l-4.675-13.193c-.128-.356-.333-1.267-.616-2.735h-.123c.119 1.933.178 3.628.178 5.086V212h-3.979v-19.605h6.467l4.006 11.621c.319.929.552 1.864.697 2.802h.082a28.34 28.34 0 0 1 .78-2.83l4.006-11.593h6.302V212Zm3.897 0v-19.605h6.946c6.963 0 10.445 3.185 10.445 9.556 0 3.054-.953 5.492-2.857 7.315-1.896 1.823-4.426 2.734-7.588 2.734h-6.946Zm4.416-16.01v12.428h2.188c1.914 0 3.413-.574 4.498-1.723 1.094-1.148 1.641-2.711 1.641-4.689 0-1.869-.543-3.336-1.627-4.402-1.076-1.076-2.589-1.614-4.539-1.614h-2.161Zm24.935-1.928V212h-1.818v-17.938h-5.647v-1.667h13.125v1.667h-5.66Zm10.87 18.266c-1.039 0-1.973-.173-2.803-.519a6.04 6.04 0 0 1-2.105-1.463 6.534 6.534 0 0 1-1.34-2.284c-.31-.884-.465-1.863-.465-2.939 0-1.167.164-2.21.492-3.131.328-.92.793-1.7 1.395-2.338a6 6 0 0 1 2.201-1.476c.857-.338 1.814-.506 2.871-.506 1.012 0 1.923.168 2.734.506a5.51 5.51 0 0 1 2.065 1.435c.565.629.998 1.395 1.299 2.297.3.902.451 1.928.451 3.076 0 1.094-.16 2.092-.479 2.994a6.655 6.655 0 0 1-1.34 2.311 5.969 5.969 0 0 1-2.132 1.504c-.839.355-1.787.533-2.844.533Zm.137-13.139c-.766 0-1.459.133-2.079.397a4.387 4.387 0 0 0-1.599 1.162c-.438.501-.775 1.121-1.012 1.859-.237.73-.355 1.559-.355 2.489 0 .875.118 1.663.355 2.365.237.702.57 1.303.998 1.805.438.501.966.888 1.586 1.162.62.264 1.313.396 2.078.396.784 0 1.477-.127 2.078-.383a4.208 4.208 0 0 0 1.532-1.134c.419-.502.733-1.112.943-1.832.219-.72.328-1.541.328-2.461 0-1.887-.419-3.327-1.258-4.321-.838-1.002-2.037-1.504-3.595-1.504Zm18.936 12.182c-1.039.629-2.297.953-3.774.971-1.002.009-1.905-.164-2.707-.52a5.966 5.966 0 0 1-2.051-1.476 6.67 6.67 0 0 1-1.298-2.242 8.525 8.525 0 0 1-.452-2.817c0-1.048.16-2.032.479-2.953a7.002 7.002 0 0 1 1.394-2.42 6.551 6.551 0 0 1 2.243-1.641c.884-.401 1.895-.601 3.035-.601 1.157 0 2.215.223 3.172.67v1.859c-1.021-.674-2.124-1.012-3.309-1.012-.829 0-1.568.16-2.215.479a4.718 4.718 0 0 0-1.64 1.285 5.822 5.822 0 0 0-1.012 1.901 7.56 7.56 0 0 0-.342 2.296c0 .748.096 1.463.287 2.147.201.683.501 1.29.903 1.818.41.52.925.934 1.544 1.244.62.31 1.349.465 2.188.465a5.826 5.826 0 0 0 3.555-1.176v1.723Z" id="CL0"/></svg>